#!OML:ASF E:\acrobat2\Project_11_07_03\Capture day 1\Session 1\Acrobat.ASF
:FULLY-SPECIFIED
:DEGREES
611
root 9.20901 18.073 22.947 -170.737 -15.5376 -183.298
lowerback 4.78128 6.13489 1.87641
upperback 3.88471 7.80987 -7.09915
thorax 2.65887 3.8969 -8.64002
lowerneck 5.64697 20.751 5.58046
upperneck 2.6289 28.0661 -11.2315
head 2.29083 14.067 -3.46832
rclavicle 5.04913e-014 -6.36111e-014
rhumerus -37.8942 12.9941 -80.8973
rradius 66.6214
rwrist -7.27372
rhand 4.32148 -33.7269
rfingers 7.12502
rthumb 29.7226 -61.364
lclavicle 5.04913e-014 -6.36111e-014
lhumerus -32.2494 -43.7942 89.5757
lradius 82.9505
lwrist 14.1943
lhand -11.595 -10.3975
lfingers 7.12502
lthumb 14.4472 19.0796
rfemur -31.252 -16.0781 20.0585
rtibia 57.7905
rfoot 19.5515 -5.62712
rtoes 8.51876
lfemur -19.482 8.65789 -25.2503
ltibia 13.8849
lfoot 21.4056 -21.8671
ltoes 31.0521
612
root 9.22111 18.0811 23.1084 -170.78 -16.3693 -183.111
lowerback 4.63936 5.89959 2.22063
upperback 4.02154 7.52537 -7.00369
thorax 2.86785 3.77506 -8.71196
lowerneck 5.38005 20.7167 5.24282
upperneck 2.72524 27.9807 -10.5225
head 2.45757 14.0269 -3.58356
rclavicle 3.10104e-014 -5.48646e-014
rhumerus -38.5577 12.1133 -80.6308
rradius 66.2968
rwrist -7.46516
rhand 3.29941 -34.7127
rfingers 7.12502
rthumb 28.7466 -62.5197
lclavicle 3.10104e-014 -5.48646e-014
lhumerus -31.7838 -44.1767 89.4536
lradius 82.6841
lwrist 14.1633
lhand -11.2016 -10.2389
lfingers 7.12502
lthumb 14.8263 19.2107
rfemur -31.8419 -16.3493 20.311
rtibia 57.9441
rfoot 19.4088 -5.66678
rtoes 8.00213
lfemur -19.0036 6.89754 -24.5868
ltibia 14.1715
lfoot 19.4618 -22.7414
ltoes 28.0969
613
root 9.2432 18.1005 23.2803 -170.814 -16.965 -182.763
lowerback 4.66571 5.6859 2.47102
upperback 3.92638 7.26776 -6.85074
thorax 2.71908 3.65444 -8.69805
lowerneck 5.80317 20.6879 5.399
upperneck 2.68164 27.9471 -10.5944
head 2.40674 14.0234 -3.67837
rclavicle -1.78906e-014 9.46215e-014
rhumerus -39.5283 11.5511 -80.4642
rradius 66.0852
rwrist -8.154
rhand 2.42127 -35.8903
rfingers 7.12502
rthumb 27.9074 -63.8367
lclavicle -1.78906e-014 9.46215e-014
lhumerus -31.8997 -44.4393 89.6282
lradius 82.5708
lwrist 14.1911
lhand -11.15 -10.0034
lfingers 7.12502
lthumb 14.876 19.4426
rfemur -32.5852 -16.1754 20.8175
rtibia 58.0663
rfoot 19.311 -6.01328
rtoes 7.92077
lfemur -18.6915 4.38937 -23.5046
ltibia 14.7289
lfoot 16.0651 -22.6215
ltoes 23.6466
614
root 9.25903 18.0954 23.461 -170.748 -17.1349 -182.544
lowerback 4.76167 5.60412 2.63935
upperback 3.68989 7.17632 -6.81007
thorax 2.41689 3.60833 -8.77159
lowerneck 6.37389 20.663 5.79582
upperneck 2.85969 27.9603 -11.1512
head 2.25965 14.0261 -3.54258
rclavicle -7.15625e-015 -7.15625e-014
rhumerus -40.9714 10.8814 -80.4231
rradius 66.119
rwrist -8.52674
rhand 1.30772 -37.0256
rfingers 7.12502
rthumb 26.8423 -65.1403
lclavicle -7.15625e-015 -7.15625e-014
lhumerus -32.1693 -44.7688 89.8555
lradius 82.4769
lwrist 14.3053
lhand -10.9169 -9.73151
lfingers 7.12502
lthumb 15.1005 19.6977
rfemur -33.5532 -15.7987 21.1261
rtibia 58.2478
rfoot 19.4562 -6.25876
rtoes 7.58131
lfemur -18.5381 2.15927 -22.7008
ltibia 15.4834
lfoot 13.0908 -21.82
ltoes 20.8469
615
root 9.26972 18.0732 23.6353 -170.702 -17.2766 -182.555
lowerback 4.79396 5.55438 2.73022
upperback 3.66398 7.11139 -6.86174
thorax 2.3799 3.57753 -8.88475
lowerneck 6.2881 20.6732 5.78694
upperneck 3.11153 27.982 -11.1168
head 2.34475 14.0245 -3.50636
rclavicle 1.41137e-013 -7.63333e-014
rhumerus -41.7042 10.0333 -80.2686
rradius 65.7399
rwrist -8.76247
rhand 0.511605 -38.2223
rfingers 7.12502
rthumb 26.0803 -66.4517
lclavicle 1.41137e-013 -7.63333e-014
lhumerus -31.8641 -45.1402 89.744
lradius 82.3058
lwrist 14.4426
lhand -10.5496 -9.64308
lfingers 7.12502
lthumb 15.4543 19.7591
rfemur -34.4098 -15.5693 21.1205
rtibia 58.5642
rfoot 20.2662 -6.57174
rtoes 11.0775
lfemur -18.3626 0.701632 -22.4059
ltibia 16.3784
lfoot 10.9409 -21.2393
ltoes 19.1575
616
root 9.28439 18.066 23.7908 -171.102 -17.4671 -182.629
lowerback 5.27655 5.58493 2.63549
upperback 3.74129 7.12919 -6.84699
thorax 2.18138 3.57376 -8.86181
lowerneck 6.03336 20.6671 5.55572
upperneck 3.51005 27.9619 -10.7475
head 2.41955 13.9914 -3.34656
rclavicle -2.94201e-014 1.19271e-013
rhumerus -42.1811 9.1699 -79.9763
rradius 64.9243
rwrist -9.05245
rhand -0.0420961 -39.0497
rfingers 7.12502
rthumb 25.5501 -67.3563
lclavicle -2.94201e-014 1.19271e-013
lhumerus -31.8239 -45.7334 89.8773
lradius 82.1856
lwrist 14.2795
lhand -10.5207 -9.87054
lfingers 7.12502
lthumb 15.4822 19.5295
rfemur -34.5409 -15.4362 20.969
rtibia 58.8136
rfoot 21.0174 -6.77926
rtoes 14.6083
lfemur -17.621 0.0351976 -22.2824
ltibia 17.3161
lfoot 9.27147 -21.0778
ltoes 18.424
617
root 9.30555 18.0575 23.9621 -171.066 -18.3602 -182.811
lowerback 5.43578 5.33388 2.61516
upperback 3.72173 6.78624 -6.88993
thorax 2.01472 3.3943 -8.91373
lowerneck 5.94357 20.6872 5.51451
upperneck 3.91027 27.99 -10.4473
head 2.50892 13.9888 -3.23383
rclavicle -9.81996e-014 1.19271e-014
rhumerus -42.9427 8.40064 -79.8213
rradius 64.2476
rwrist -9.19373
rhand -0.980265 -38.935
rfingers 7.12502
rthumb 24.6511 -67.3674
lclavicle -9.81996e-014 1.19271e-014
lhumerus -31.8495 -46.309 89.8907
lradius 82.031
lwrist 13.9984
lhand -10.6577 -10.1961
lfingers 7.12502
lthumb 15.3502 19.2142
rfemur -35.1794 -15.9839 20.9289
rtibia 59.0638
rfoot 18.9159 -6.40682
rtoes 6.71255
lfemur -17.3686 -1.23909 -22.1842
ltibia 18.2213
lfoot 8.61487 -20.3848
ltoes 21.4646
618
root 9.29917 18.0552 24.1084 -171.192 -18.3875 -182.706
lowerback 4.79241 5.32635 2.93996
upperback 4.11254 6.79657 -6.94081
thorax 2.83653 3.43762 -9.07437
lowerneck 5.54561 20.7257 5.43154
upperneck 3.98436 28.0471 -10.5008
head 2.59249 14.0038 -3.18586
rclavicle -1.35174e-014 3.10104e-014
rhumerus -42.9528 7.59832 -79.6323
rradius 63.4831
rwrist -9.15553
rhand -1.68751 -38.6071
rfingers 7.12502
rthumb 23.9731 -67.1303
lclavicle -1.35174e-014 3.10104e-014
lhumerus -30.8667 -46.731 89.107
lradius 81.8368
lwrist 14.0011
lhand -10.712 -10.3378
lfingers 7.12502
lthumb 15.298 19.0765
rfemur -35.5856 -15.9005 20.9838
rtibia 59.1156
rfoot 18.7866 -6.29535
rtoes 6.56196
lfemur -16.8016 -2.30165 -21.9094
ltibia 19.0497
lfoot 7.2467 -19.2472
ltoes 23.3336
619
root 9.32379 18.0537 24.2854 -171.074 -19.0844 -182.912
lowerback 5.00391 5.09678 2.79905
upperback 4.02023 6.47461 -7.01111
thorax 2.55352 3.25973 -9.09665
lowerneck 5.40971 20.6872 5.40969
upperneck 4.16936 27.9748 -9.92823
head 2.87554 13.9751 -3.34598
rclavicle -2.98177e-014 6.75868e-014
rhumerus -43.531 6.73701 -79.4907
rradius 62.7989
rwrist -9.08588
rhand -2.00214 -38.6509
rfingers 7.12502
rthumb 23.6713 -67.2135
lclavicle -2.98177e-014 6.75868e-014
lhumerus -30.9073 -47.2787 88.9112
lradius 81.8679
lwrist 14.0647
lhand -10.8679 -10.3377
lfingers 7.12502
lthumb 15.1477 19.0879
rfemur -36.2555 -16.1224 20.9167
rtibia 59.1736
rfoot 18.2904 -6.73303
rtoes 7.01789
lfemur -16.6673 -3.25525 -21.9097
ltibia 19.9939
lfoot 6.16699 -18.5342
ltoes 23.149
620
root 9.30785 18.0531 24.4145 -171.402 -18.5215 -182.74
lowerback 4.74305 5.29233 2.88315
upperback 4.09536 6.74738 -6.96813
thorax 2.8333 3.40997 -9.06801
lowerneck 5.45838 20.7059 5.2146
upperneck 4.20432 27.9812 -9.83903
head 2.83451 13.9746 -3.30397
rclavicle 1.07344e-013 4.13472e-014
rhumerus -44.1008 6.1553 -79.176
rradius 62.1605
rwrist -9.23679
rhand -2.41557 -38.8699
rfingers 7.12502
rthumb 23.2748 -67.4832
lclavicle 1.07344e-013 4.13472e-014
lhumerus -30.923 -47.5644 88.9012
lradius 81.7657
lwrist 13.9379
lhand -11.0571 -10.4781
lfingers 7.12502
lthumb 14.9655 18.9611
rfemur -36.3472 -15.4738 20.8731
rtibia 59.0607
rfoot 17.7529 -6.93499
rtoes 7.77554
lfemur -15.9174 -3.51947 -21.7827
ltibia 21.0705
lfoot 3.93407 -17.5184
ltoes 21.6228
621
root 9.31621 18.05 24.5732 -171.434 -19.0638 -182.686
lowerback 4.3357 5.04566 2.6765
upperback 4.29557 6.43073 -6.69441
thorax 3.15102 3.25398 -8.60784
lowerneck 5.53861 20.8337 4.9252
upperneck 4.10892 28.1384 -10.1077
head 2.80583 14.0509 -3.35478
rclavicle 1.82882e-014 8.74653e-015
rhumerus -44.3446 5.96564 -78.5909
rradius 61.5476
rwrist -9.42901
rhand -2.42717 -39.4914
rfingers 7.12502
rthumb 23.2636 -68.1061
lclavicle 1.82882e-014 8.74653e-015
lhumerus -30.464 -47.3597 88.9842
lradius 81.41
lwrist 13.7147
lhand -11.0514 -10.7905
lfingers 7.12502
lthumb 14.9709 18.6484
rfemur -36.7611 -15.6552 20.9808
rtibia 58.9589
rfoot 17.3818 -7.19881
rtoes 8.10844
lfemur -15.6725 -4.10794 -21.6505
ltibia 22.2456
lfoot 2.28985 -16.7211
ltoes 19.3411
